<svg xmlns="http://www.w3.org/2000/svg" viewBox="0 0 800 1000" role="img" aria-label="Abstract building facade">
<defs>
<linearGradient id="bg" x1="0" y1="0" x2="1" y2="1"><stop offset="0" stop-color="#2e4a73"/><stop offset="1" stop-color="#16263F"/></linearGradient>
<linearGradient id="gl" x1="0" y1="0" x2="1" y2="0"><stop offset="0" stop-color="#fff" stop-opacity="0"/><stop offset=".5" stop-color="#fff" stop-opacity=".16"/><stop offset="1" stop-color="#fff" stop-opacity="0"/></linearGradient>
</defs>
<rect width="800" height="1000" fill="url(#bg)"/>
<rect x="46.0" y="46.0" width="108.0" height="71.6" rx="2" fill="#0e1a2e" opacity="0.55"/>
<rect x="46.0" y="46.0" width="108.0" height="1.5" fill="#fff" opacity=".35"/>
<rect x="166.0" y="46.0" width="108.0" height="71.6" rx="2" fill="#0e1a2e" opacity="0.55"/>
<rect x="166.0" y="46.0" width="108.0" height="1.5" fill="#fff" opacity=".35"/>
<rect x="286.0" y="46.0" width="108.0" height="71.6" rx="2" fill="#0e1a2e" opacity="0.55"/>
<rect x="286.0" y="46.0" width="108.0" height="1.5" fill="#fff" opacity=".35"/>
<rect x="406.0" y="46.0" width="108.0" height="71.6" rx="2" fill="#0e1a2e" opacity="0.55"/>
<rect x="406.0" y="46.0" width="108.0" height="1.5" fill="#fff" opacity=".35"/>
<rect x="526.0" y="46.0" width="108.0" height="71.6" rx="2" fill="#0e1a2e" opacity="0.55"/>
<rect x="526.0" y="46.0" width="108.0" height="1.5" fill="#fff" opacity=".35"/>
<rect x="646.0" y="46.0" width="108.0" height="71.6" rx="2" fill="#0e1a2e" opacity="0.55"/>
<rect x="646.0" y="46.0" width="108.0" height="1.5" fill="#fff" opacity=".35"/>
<rect x="46.0" y="129.6" width="108.0" height="71.6" rx="2" fill="#0e1a2e" opacity="0.55"/>
<rect x="46.0" y="129.6" width="108.0" height="1.5" fill="#fff" opacity=".35"/>
<rect x="166.0" y="129.6" width="108.0" height="71.6" rx="2" fill="#fff" opacity="0.22"/>
<rect x="166.0" y="129.6" width="108.0" height="1.5" fill="#fff" opacity=".35"/>
<rect x="286.0" y="129.6" width="108.0" height="71.6" rx="2" fill="#0e1a2e" opacity="0.55"/>
<rect x="286.0" y="129.6" width="108.0" height="1.5" fill="#fff" opacity=".35"/>
<rect x="406.0" y="129.6" width="108.0" height="71.6" rx="2" fill="#0e1a2e" opacity="0.55"/>
<rect x="406.0" y="129.6" width="108.0" height="1.5" fill="#fff" opacity=".35"/>
<rect x="526.0" y="129.6" width="108.0" height="71.6" rx="2" fill="#9fc7a4" opacity="0.55"/>
<rect x="526.0" y="129.6" width="108.0" height="1.5" fill="#fff" opacity=".35"/>
<rect x="646.0" y="129.6" width="108.0" height="71.6" rx="2" fill="#0e1a2e" opacity="0.55"/>
<rect x="646.0" y="129.6" width="108.0" height="1.5" fill="#fff" opacity=".35"/>
<rect x="46.0" y="213.3" width="108.0" height="71.6" rx="2" fill="#fff" opacity="0.22"/>
<rect x="46.0" y="213.3" width="108.0" height="1.5" fill="#fff" opacity=".35"/>
<rect x="166.0" y="213.3" width="108.0" height="71.6" rx="2" fill="#0e1a2e" opacity="0.55"/>
<rect x="166.0" y="213.3" width="108.0" height="1.5" fill="#fff" opacity=".35"/>
<rect x="286.0" y="213.3" width="108.0" height="71.6" rx="2" fill="#0e1a2e" opacity="0.55"/>
<rect x="286.0" y="213.3" width="108.0" height="1.5" fill="#fff" opacity=".35"/>
<rect x="406.0" y="213.3" width="108.0" height="71.6" rx="2" fill="#0e1a2e" opacity="0.55"/>
<rect x="406.0" y="213.3" width="108.0" height="1.5" fill="#fff" opacity=".35"/>
<rect x="526.0" y="213.3" width="108.0" height="71.6" rx="2" fill="#0e1a2e" opacity="0.55"/>
<rect x="526.0" y="213.3" width="108.0" height="1.5" fill="#fff" opacity=".35"/>
<rect x="646.0" y="213.3" width="108.0" height="71.6" rx="2" fill="#fff" opacity="0.22"/>
<rect x="646.0" y="213.3" width="108.0" height="1.5" fill="#fff" opacity=".35"/>
<rect x="46.0" y="296.9" width="108.0" height="71.6" rx="2" fill="#0e1a2e" opacity="0.55"/>
<rect x="46.0" y="296.9" width="108.0" height="1.5" fill="#fff" opacity=".35"/>
<rect x="166.0" y="296.9" width="108.0" height="71.6" rx="2" fill="#fff" opacity="0.22"/>
<rect x="166.0" y="296.9" width="108.0" height="1.5" fill="#fff" opacity=".35"/>
<rect x="286.0" y="296.9" width="108.0" height="71.6" rx="2" fill="#0e1a2e" opacity="0.55"/>
<rect x="286.0" y="296.9" width="108.0" height="1.5" fill="#fff" opacity=".35"/>
<rect x="406.0" y="296.9" width="108.0" height="71.6" rx="2" fill="#0e1a2e" opacity="0.55"/>
<rect x="406.0" y="296.9" width="108.0" height="1.5" fill="#fff" opacity=".35"/>
<rect x="526.0" y="296.9" width="108.0" height="71.6" rx="2" fill="#fff" opacity="0.22"/>
<rect x="526.0" y="296.9" width="108.0" height="1.5" fill="#fff" opacity=".35"/>
<rect x="646.0" y="296.9" width="108.0" height="71.6" rx="2" fill="#0e1a2e" opacity="0.55"/>
<rect x="646.0" y="296.9" width="108.0" height="1.5" fill="#fff" opacity=".35"/>
<rect x="46.0" y="380.5" width="108.0" height="71.6" rx="2" fill="#0e1a2e" opacity="0.55"/>
<rect x="46.0" y="380.5" width="108.0" height="1.5" fill="#fff" opacity=".35"/>
<rect x="166.0" y="380.5" width="108.0" height="71.6" rx="2" fill="#0e1a2e" opacity="0.55"/>
<rect x="166.0" y="380.5" width="108.0" height="1.5" fill="#fff" opacity=".35"/>
<rect x="286.0" y="380.5" width="108.0" height="71.6" rx="2" fill="#fff" opacity="0.22"/>
<rect x="286.0" y="380.5" width="108.0" height="1.5" fill="#fff" opacity=".35"/>
<rect x="406.0" y="380.5" width="108.0" height="71.6" rx="2" fill="#0e1a2e" opacity="0.55"/>
<rect x="406.0" y="380.5" width="108.0" height="1.5" fill="#fff" opacity=".35"/>
<rect x="526.0" y="380.5" width="108.0" height="71.6" rx="2" fill="#0e1a2e" opacity="0.55"/>
<rect x="526.0" y="380.5" width="108.0" height="1.5" fill="#fff" opacity=".35"/>
<rect x="646.0" y="380.5" width="108.0" height="71.6" rx="2" fill="#fff" opacity="0.22"/>
<rect x="646.0" y="380.5" width="108.0" height="1.5" fill="#fff" opacity=".35"/>
<rect x="46.0" y="464.2" width="108.0" height="71.6" rx="2" fill="#0e1a2e" opacity="0.55"/>
<rect x="46.0" y="464.2" width="108.0" height="1.5" fill="#fff" opacity=".35"/>
<rect x="166.0" y="464.2" width="108.0" height="71.6" rx="2" fill="#fff" opacity="0.22"/>
<rect x="166.0" y="464.2" width="108.0" height="1.5" fill="#fff" opacity=".35"/>
<rect x="286.0" y="464.2" width="108.0" height="71.6" rx="2" fill="#0e1a2e" opacity="0.55"/>
<rect x="286.0" y="464.2" width="108.0" height="1.5" fill="#fff" opacity=".35"/>
<rect x="406.0" y="464.2" width="108.0" height="71.6" rx="2" fill="#fff" opacity="0.22"/>
<rect x="406.0" y="464.2" width="108.0" height="1.5" fill="#fff" opacity=".35"/>
<rect x="526.0" y="464.2" width="108.0" height="71.6" rx="2" fill="#0e1a2e" opacity="0.55"/>
<rect x="526.0" y="464.2" width="108.0" height="1.5" fill="#fff" opacity=".35"/>
<rect x="646.0" y="464.2" width="108.0" height="71.6" rx="2" fill="#9fc7a4" opacity="0.55"/>
<rect x="646.0" y="464.2" width="108.0" height="1.5" fill="#fff" opacity=".35"/>
<rect x="46.0" y="547.8" width="108.0" height="71.6" rx="2" fill="#fff" opacity="0.22"/>
<rect x="46.0" y="547.8" width="108.0" height="1.5" fill="#fff" opacity=".35"/>
<rect x="166.0" y="547.8" width="108.0" height="71.6" rx="2" fill="#0e1a2e" opacity="0.55"/>
<rect x="166.0" y="547.8" width="108.0" height="1.5" fill="#fff" opacity=".35"/>
<rect x="286.0" y="547.8" width="108.0" height="71.6" rx="2" fill="#0e1a2e" opacity="0.55"/>
<rect x="286.0" y="547.8" width="108.0" height="1.5" fill="#fff" opacity=".35"/>
<rect x="406.0" y="547.8" width="108.0" height="71.6" rx="2" fill="#0e1a2e" opacity="0.55"/>
<rect x="406.0" y="547.8" width="108.0" height="1.5" fill="#fff" opacity=".35"/>
<rect x="526.0" y="547.8" width="108.0" height="71.6" rx="2" fill="#9fc7a4" opacity="0.55"/>
<rect x="526.0" y="547.8" width="108.0" height="1.5" fill="#fff" opacity=".35"/>
<rect x="646.0" y="547.8" width="108.0" height="71.6" rx="2" fill="#0e1a2e" opacity="0.55"/>
<rect x="646.0" y="547.8" width="108.0" height="1.5" fill="#fff" opacity=".35"/>
<rect x="46.0" y="631.5" width="108.0" height="71.6" rx="2" fill="#0e1a2e" opacity="0.55"/>
<rect x="46.0" y="631.5" width="108.0" height="1.5" fill="#fff" opacity=".35"/>
<rect x="166.0" y="631.5" width="108.0" height="71.6" rx="2" fill="#0e1a2e" opacity="0.55"/>
<rect x="166.0" y="631.5" width="108.0" height="1.5" fill="#fff" opacity=".35"/>
<rect x="286.0" y="631.5" width="108.0" height="71.6" rx="2" fill="#0e1a2e" opacity="0.55"/>
<rect x="286.0" y="631.5" width="108.0" height="1.5" fill="#fff" opacity=".35"/>
<rect x="406.0" y="631.5" width="108.0" height="71.6" rx="2" fill="#0e1a2e" opacity="0.55"/>
<rect x="406.0" y="631.5" width="108.0" height="1.5" fill="#fff" opacity=".35"/>
<rect x="526.0" y="631.5" width="108.0" height="71.6" rx="2" fill="#0e1a2e" opacity="0.55"/>
<rect x="526.0" y="631.5" width="108.0" height="1.5" fill="#fff" opacity=".35"/>
<rect x="646.0" y="631.5" width="108.0" height="71.6" rx="2" fill="#0e1a2e" opacity="0.55"/>
<rect x="646.0" y="631.5" width="108.0" height="1.5" fill="#fff" opacity=".35"/>
<rect x="46.0" y="715.1" width="108.0" height="71.6" rx="2" fill="#0e1a2e" opacity="0.55"/>
<rect x="46.0" y="715.1" width="108.0" height="1.5" fill="#fff" opacity=".35"/>
<rect x="166.0" y="715.1" width="108.0" height="71.6" rx="2" fill="#fff" opacity="0.22"/>
<rect x="166.0" y="715.1" width="108.0" height="1.5" fill="#fff" opacity=".35"/>
<rect x="286.0" y="715.1" width="108.0" height="71.6" rx="2" fill="#0e1a2e" opacity="0.55"/>
<rect x="286.0" y="715.1" width="108.0" height="1.5" fill="#fff" opacity=".35"/>
<rect x="406.0" y="715.1" width="108.0" height="71.6" rx="2" fill="#fff" opacity="0.22"/>
<rect x="406.0" y="715.1" width="108.0" height="1.5" fill="#fff" opacity=".35"/>
<rect x="526.0" y="715.1" width="108.0" height="71.6" rx="2" fill="#fff" opacity="0.22"/>
<rect x="526.0" y="715.1" width="108.0" height="1.5" fill="#fff" opacity=".35"/>
<rect x="646.0" y="715.1" width="108.0" height="71.6" rx="2" fill="#9fc7a4" opacity="0.55"/>
<rect x="646.0" y="715.1" width="108.0" height="1.5" fill="#fff" opacity=".35"/>
<rect x="46.0" y="798.7" width="108.0" height="71.6" rx="2" fill="#0e1a2e" opacity="0.55"/>
<rect x="46.0" y="798.7" width="108.0" height="1.5" fill="#fff" opacity=".35"/>
<rect x="166.0" y="798.7" width="108.0" height="71.6" rx="2" fill="#0e1a2e" opacity="0.55"/>
<rect x="166.0" y="798.7" width="108.0" height="1.5" fill="#fff" opacity=".35"/>
<rect x="286.0" y="798.7" width="108.0" height="71.6" rx="2" fill="#fff" opacity="0.22"/>
<rect x="286.0" y="798.7" width="108.0" height="1.5" fill="#fff" opacity=".35"/>
<rect x="406.0" y="798.7" width="108.0" height="71.6" rx="2" fill="#9fc7a4" opacity="0.55"/>
<rect x="406.0" y="798.7" width="108.0" height="1.5" fill="#fff" opacity=".35"/>
<rect x="526.0" y="798.7" width="108.0" height="71.6" rx="2" fill="#fff" opacity="0.22"/>
<rect x="526.0" y="798.7" width="108.0" height="1.5" fill="#fff" opacity=".35"/>
<rect x="646.0" y="798.7" width="108.0" height="71.6" rx="2" fill="#0e1a2e" opacity="0.55"/>
<rect x="646.0" y="798.7" width="108.0" height="1.5" fill="#fff" opacity=".35"/>
<rect x="46.0" y="882.4" width="108.0" height="71.6" rx="2" fill="#0e1a2e" opacity="0.55"/>
<rect x="46.0" y="882.4" width="108.0" height="1.5" fill="#fff" opacity=".35"/>
<rect x="166.0" y="882.4" width="108.0" height="71.6" rx="2" fill="#0e1a2e" opacity="0.55"/>
<rect x="166.0" y="882.4" width="108.0" height="1.5" fill="#fff" opacity=".35"/>
<rect x="286.0" y="882.4" width="108.0" height="71.6" rx="2" fill="#fff" opacity="0.22"/>
<rect x="286.0" y="882.4" width="108.0" height="1.5" fill="#fff" opacity=".35"/>
<rect x="406.0" y="882.4" width="108.0" height="71.6" rx="2" fill="#0e1a2e" opacity="0.55"/>
<rect x="406.0" y="882.4" width="108.0" height="1.5" fill="#fff" opacity=".35"/>
<rect x="526.0" y="882.4" width="108.0" height="71.6" rx="2" fill="#0e1a2e" opacity="0.55"/>
<rect x="526.0" y="882.4" width="108.0" height="1.5" fill="#fff" opacity=".35"/>
<rect x="646.0" y="882.4" width="108.0" height="71.6" rx="2" fill="#0e1a2e" opacity="0.55"/>
<rect x="646.0" y="882.4" width="108.0" height="1.5" fill="#fff" opacity=".35"/>
<rect x="277.0" y="40" width="6" height="920" fill="#4E7F54" opacity=".9"/>
<polygon points="120,0 360,0 700,1000 460,1000" fill="url(#gl)"/>
</svg>