<svg xmlns="http://www.w3.org/2000/svg" viewBox="0 0 800 1000" role="img" aria-label="Abstract molecular network">
<defs>
<linearGradient id="bg" x1="0" y1="0" x2="1" y2="1"><stop offset="0" stop-color="#1d3355"/><stop offset="1" stop-color="#16263F"/></linearGradient>
<radialGradient id="n" cx=".35" cy=".3" r=".8"><stop offset="0" stop-color="#fff"/><stop offset=".35" stop-color="#9fc7a4"/><stop offset="1" stop-color="#4E7F54"/></radialGradient>
<radialGradient id="nb" cx=".35" cy=".3" r=".8"><stop offset="0" stop-color="#fff"/><stop offset=".4" stop-color="#9db4d2"/><stop offset="1" stop-color="#2e4a73"/></radialGradient>
<radialGradient id="glow" cx=".5" cy=".45" r=".6"><stop offset="0" stop-color="#4E7F54" stop-opacity=".3"/><stop offset="1" stop-color="#4E7F54" stop-opacity="0"/></radialGradient>
</defs>
<rect width="800" height="1000" fill="url(#bg)"/><rect width="800" height="1000" fill="url(#glow)"/>
<polygon points="0.0,-46.0 -39.8,-23.0 -79.7,-46.0 -79.7,-92.0 -39.8,-115.0 0.0,-92.0" fill="none" stroke="#fff" stroke-opacity=".05"/>
<polygon points="79.7,-46.0 39.8,-23.0 -0.0,-46.0 -0.0,-92.0 39.8,-115.0 79.7,-92.0" fill="none" stroke="#fff" stroke-opacity=".05"/>
<polygon points="159.3,-46.0 119.5,-23.0 79.7,-46.0 79.7,-92.0 119.5,-115.0 159.3,-92.0" fill="none" stroke="#fff" stroke-opacity=".05"/>
<polygon points="239.0,-46.0 199.2,-23.0 159.3,-46.0 159.3,-92.0 199.2,-115.0 239.0,-92.0" fill="none" stroke="#fff" stroke-opacity=".05"/>
<polygon points="318.7,-46.0 278.9,-23.0 239.0,-46.0 239.0,-92.0 278.9,-115.0 318.7,-92.0" fill="none" stroke="#fff" stroke-opacity=".05"/>
<polygon points="398.4,-46.0 358.5,-23.0 318.7,-46.0 318.7,-92.0 358.5,-115.0 398.4,-92.0" fill="none" stroke="#fff" stroke-opacity=".05"/>
<polygon points="478.0,-46.0 438.2,-23.0 398.4,-46.0 398.4,-92.0 438.2,-115.0 478.0,-92.0" fill="none" stroke="#fff" stroke-opacity=".05"/>
<polygon points="557.7,-46.0 517.9,-23.0 478.0,-46.0 478.0,-92.0 517.9,-115.0 557.7,-92.0" fill="none" stroke="#fff" stroke-opacity=".05"/>
<polygon points="637.4,-46.0 597.5,-23.0 557.7,-46.0 557.7,-92.0 597.5,-115.0 637.4,-92.0" fill="none" stroke="#fff" stroke-opacity=".05"/>
<polygon points="717.0,-46.0 677.2,-23.0 637.4,-46.0 637.4,-92.0 677.2,-115.0 717.0,-92.0" fill="none" stroke="#fff" stroke-opacity=".05"/>
<polygon points="796.7,-46.0 756.9,-23.0 717.0,-46.0 717.0,-92.0 756.9,-115.0 796.7,-92.0" fill="none" stroke="#fff" stroke-opacity=".05"/>
<polygon points="-39.8,23.0 -79.7,46.0 -119.5,23.0 -119.5,-23.0 -79.7,-46.0 -39.8,-23.0" fill="none" stroke="#fff" stroke-opacity=".05"/>
<polygon points="39.8,23.0 0.0,46.0 -39.8,23.0 -39.8,-23.0 -0.0,-46.0 39.8,-23.0" fill="none" stroke="#fff" stroke-opacity=".05"/>
<polygon points="119.5,23.0 79.7,46.0 39.8,23.0 39.8,-23.0 79.7,-46.0 119.5,-23.0" fill="none" stroke="#fff" stroke-opacity=".05"/>
<polygon points="199.2,23.0 159.3,46.0 119.5,23.0 119.5,-23.0 159.3,-46.0 199.2,-23.0" fill="none" stroke="#fff" stroke-opacity=".05"/>
<polygon points="278.9,23.0 239.0,46.0 199.2,23.0 199.2,-23.0 239.0,-46.0 278.9,-23.0" fill="none" stroke="#fff" stroke-opacity=".05"/>
<polygon points="358.5,23.0 318.7,46.0 278.9,23.0 278.9,-23.0 318.7,-46.0 358.5,-23.0" fill="none" stroke="#fff" stroke-opacity=".05"/>
<polygon points="438.2,23.0 398.4,46.0 358.5,23.0 358.5,-23.0 398.4,-46.0 438.2,-23.0" fill="none" stroke="#fff" stroke-opacity=".05"/>
<polygon points="517.9,23.0 478.0,46.0 438.2,23.0 438.2,-23.0 478.0,-46.0 517.9,-23.0" fill="none" stroke="#fff" stroke-opacity=".05"/>
<polygon points="597.5,23.0 557.7,46.0 517.9,23.0 517.9,-23.0 557.7,-46.0 597.5,-23.0" fill="none" stroke="#fff" stroke-opacity=".05"/>
<polygon points="677.2,23.0 637.4,46.0 597.5,23.0 597.5,-23.0 637.4,-46.0 677.2,-23.0" fill="none" stroke="#fff" stroke-opacity=".05"/>
<polygon points="756.9,23.0 717.0,46.0 677.2,23.0 677.2,-23.0 717.0,-46.0 756.9,-23.0" fill="none" stroke="#fff" stroke-opacity=".05"/>
<polygon points="0.0,92.0 -39.8,115.0 -79.7,92.0 -79.7,46.0 -39.8,23.0 0.0,46.0" fill="none" stroke="#fff" stroke-opacity=".05"/>
<polygon points="79.7,92.0 39.8,115.0 -0.0,92.0 -0.0,46.0 39.8,23.0 79.7,46.0" fill="none" stroke="#fff" stroke-opacity=".05"/>
<polygon points="159.3,92.0 119.5,115.0 79.7,92.0 79.7,46.0 119.5,23.0 159.3,46.0" fill="none" stroke="#fff" stroke-opacity=".05"/>
<polygon points="239.0,92.0 199.2,115.0 159.3,92.0 159.3,46.0 199.2,23.0 239.0,46.0" fill="none" stroke="#fff" stroke-opacity=".05"/>
<polygon points="318.7,92.0 278.9,115.0 239.0,92.0 239.0,46.0 278.9,23.0 318.7,46.0" fill="none" stroke="#fff" stroke-opacity=".05"/>
<polygon points="398.4,92.0 358.5,115.0 318.7,92.0 318.7,46.0 358.5,23.0 398.4,46.0" fill="none" stroke="#fff" stroke-opacity=".05"/>
<polygon points="478.0,92.0 438.2,115.0 398.4,92.0 398.4,46.0 438.2,23.0 478.0,46.0" fill="none" stroke="#fff" stroke-opacity=".05"/>
<polygon points="557.7,92.0 517.9,115.0 478.0,92.0 478.0,46.0 517.9,23.0 557.7,46.0" fill="none" stroke="#fff" stroke-opacity=".05"/>
<polygon points="637.4,92.0 597.5,115.0 557.7,92.0 557.7,46.0 597.5,23.0 637.4,46.0" fill="none" stroke="#fff" stroke-opacity=".05"/>
<polygon points="717.0,92.0 677.2,115.0 637.4,92.0 637.4,46.0 677.2,23.0 717.0,46.0" fill="none" stroke="#fff" stroke-opacity=".05"/>
<polygon points="796.7,92.0 756.9,115.0 717.0,92.0 717.0,46.0 756.9,23.0 796.7,46.0" fill="none" stroke="#fff" stroke-opacity=".05"/>
<polygon points="-39.8,161.0 -79.7,184.0 -119.5,161.0 -119.5,115.0 -79.7,92.0 -39.8,115.0" fill="none" stroke="#fff" stroke-opacity=".05"/>
<polygon points="39.8,161.0 0.0,184.0 -39.8,161.0 -39.8,115.0 -0.0,92.0 39.8,115.0" fill="none" stroke="#fff" stroke-opacity=".05"/>
<polygon points="119.5,161.0 79.7,184.0 39.8,161.0 39.8,115.0 79.7,92.0 119.5,115.0" fill="none" stroke="#fff" stroke-opacity=".05"/>
<polygon points="199.2,161.0 159.3,184.0 119.5,161.0 119.5,115.0 159.3,92.0 199.2,115.0" fill="none" stroke="#fff" stroke-opacity=".05"/>
<polygon points="278.9,161.0 239.0,184.0 199.2,161.0 199.2,115.0 239.0,92.0 278.9,115.0" fill="none" stroke="#fff" stroke-opacity=".05"/>
<polygon points="358.5,161.0 318.7,184.0 278.9,161.0 278.9,115.0 318.7,92.0 358.5,115.0" fill="none" stroke="#fff" stroke-opacity=".05"/>
<polygon points="438.2,161.0 398.4,184.0 358.5,161.0 358.5,115.0 398.4,92.0 438.2,115.0" fill="none" stroke="#fff" stroke-opacity=".05"/>
<polygon points="517.9,161.0 478.0,184.0 438.2,161.0 438.2,115.0 478.0,92.0 517.9,115.0" fill="none" stroke="#fff" stroke-opacity=".05"/>
<polygon points="597.5,161.0 557.7,184.0 517.9,161.0 517.9,115.0 557.7,92.0 597.5,115.0" fill="none" stroke="#fff" stroke-opacity=".05"/>
<polygon points="677.2,161.0 637.4,184.0 597.5,161.0 597.5,115.0 637.4,92.0 677.2,115.0" fill="none" stroke="#fff" stroke-opacity=".05"/>
<polygon points="756.9,161.0 717.0,184.0 677.2,161.0 677.2,115.0 717.0,92.0 756.9,115.0" fill="none" stroke="#fff" stroke-opacity=".05"/>
<polygon points="0.0,230.0 -39.8,253.0 -79.7,230.0 -79.7,184.0 -39.8,161.0 0.0,184.0" fill="none" stroke="#fff" stroke-opacity=".05"/>
<polygon points="79.7,230.0 39.8,253.0 -0.0,230.0 -0.0,184.0 39.8,161.0 79.7,184.0" fill="none" stroke="#fff" stroke-opacity=".05"/>
<polygon points="159.3,230.0 119.5,253.0 79.7,230.0 79.7,184.0 119.5,161.0 159.3,184.0" fill="none" stroke="#fff" stroke-opacity=".05"/>
<polygon points="239.0,230.0 199.2,253.0 159.3,230.0 159.3,184.0 199.2,161.0 239.0,184.0" fill="none" stroke="#fff" stroke-opacity=".05"/>
<polygon points="318.7,230.0 278.9,253.0 239.0,230.0 239.0,184.0 278.9,161.0 318.7,184.0" fill="none" stroke="#fff" stroke-opacity=".05"/>
<polygon points="398.4,230.0 358.5,253.0 318.7,230.0 318.7,184.0 358.5,161.0 398.4,184.0" fill="none" stroke="#fff" stroke-opacity=".05"/>
<polygon points="478.0,230.0 438.2,253.0 398.4,230.0 398.4,184.0 438.2,161.0 478.0,184.0" fill="none" stroke="#fff" stroke-opacity=".05"/>
<polygon points="557.7,230.0 517.9,253.0 478.0,230.0 478.0,184.0 517.9,161.0 557.7,184.0" fill="none" stroke="#fff" stroke-opacity=".05"/>
<polygon points="637.4,230.0 597.5,253.0 557.7,230.0 557.7,184.0 597.5,161.0 637.4,184.0" fill="none" stroke="#fff" stroke-opacity=".05"/>
<polygon points="717.0,230.0 677.2,253.0 637.4,230.0 637.4,184.0 677.2,161.0 717.0,184.0" fill="none" stroke="#fff" stroke-opacity=".05"/>
<polygon points="796.7,230.0 756.9,253.0 717.0,230.0 717.0,184.0 756.9,161.0 796.7,184.0" fill="none" stroke="#fff" stroke-opacity=".05"/>
<polygon points="-39.8,299.0 -79.7,322.0 -119.5,299.0 -119.5,253.0 -79.7,230.0 -39.8,253.0" fill="none" stroke="#fff" stroke-opacity=".05"/>
<polygon points="39.8,299.0 0.0,322.0 -39.8,299.0 -39.8,253.0 -0.0,230.0 39.8,253.0" fill="none" stroke="#fff" stroke-opacity=".05"/>
<polygon points="119.5,299.0 79.7,322.0 39.8,299.0 39.8,253.0 79.7,230.0 119.5,253.0" fill="none" stroke="#fff" stroke-opacity=".05"/>
<polygon points="199.2,299.0 159.3,322.0 119.5,299.0 119.5,253.0 159.3,230.0 199.2,253.0" fill="none" stroke="#fff" stroke-opacity=".05"/>
<polygon points="278.9,299.0 239.0,322.0 199.2,299.0 199.2,253.0 239.0,230.0 278.9,253.0" fill="none" stroke="#fff" stroke-opacity=".05"/>
<polygon points="358.5,299.0 318.7,322.0 278.9,299.0 278.9,253.0 318.7,230.0 358.5,253.0" fill="none" stroke="#fff" stroke-opacity=".05"/>
<polygon points="438.2,299.0 398.4,322.0 358.5,299.0 358.5,253.0 398.4,230.0 438.2,253.0" fill="none" stroke="#fff" stroke-opacity=".05"/>
<polygon points="517.9,299.0 478.0,322.0 438.2,299.0 438.2,253.0 478.0,230.0 517.9,253.0" fill="none" stroke="#fff" stroke-opacity=".05"/>
<polygon points="597.5,299.0 557.7,322.0 517.9,299.0 517.9,253.0 557.7,230.0 597.5,253.0" fill="none" stroke="#fff" stroke-opacity=".05"/>
<polygon points="677.2,299.0 637.4,322.0 597.5,299.0 597.5,253.0 637.4,230.0 677.2,253.0" fill="none" stroke="#fff" stroke-opacity=".05"/>
<polygon points="756.9,299.0 717.0,322.0 677.2,299.0 677.2,253.0 717.0,230.0 756.9,253.0" fill="none" stroke="#fff" stroke-opacity=".05"/>
<polygon points="0.0,368.0 -39.8,391.0 -79.7,368.0 -79.7,322.0 -39.8,299.0 0.0,322.0" fill="none" stroke="#fff" stroke-opacity=".05"/>
<polygon points="79.7,368.0 39.8,391.0 -0.0,368.0 -0.0,322.0 39.8,299.0 79.7,322.0" fill="none" stroke="#fff" stroke-opacity=".05"/>
<polygon points="159.3,368.0 119.5,391.0 79.7,368.0 79.7,322.0 119.5,299.0 159.3,322.0" fill="none" stroke="#fff" stroke-opacity=".05"/>
<polygon points="239.0,368.0 199.2,391.0 159.3,368.0 159.3,322.0 199.2,299.0 239.0,322.0" fill="none" stroke="#fff" stroke-opacity=".05"/>
<polygon points="318.7,368.0 278.9,391.0 239.0,368.0 239.0,322.0 278.9,299.0 318.7,322.0" fill="none" stroke="#fff" stroke-opacity=".05"/>
<polygon points="398.4,368.0 358.5,391.0 318.7,368.0 318.7,322.0 358.5,299.0 398.4,322.0" fill="none" stroke="#fff" stroke-opacity=".05"/>
<polygon points="478.0,368.0 438.2,391.0 398.4,368.0 398.4,322.0 438.2,299.0 478.0,322.0" fill="none" stroke="#fff" stroke-opacity=".05"/>
<polygon points="557.7,368.0 517.9,391.0 478.0,368.0 478.0,322.0 517.9,299.0 557.7,322.0" fill="none" stroke="#fff" stroke-opacity=".05"/>
<polygon points="637.4,368.0 597.5,391.0 557.7,368.0 557.7,322.0 597.5,299.0 637.4,322.0" fill="none" stroke="#fff" stroke-opacity=".05"/>
<polygon points="717.0,368.0 677.2,391.0 637.4,368.0 637.4,322.0 677.2,299.0 717.0,322.0" fill="none" stroke="#fff" stroke-opacity=".05"/>
<polygon points="796.7,368.0 756.9,391.0 717.0,368.0 717.0,322.0 756.9,299.0 796.7,322.0" fill="none" stroke="#fff" stroke-opacity=".05"/>
<polygon points="-39.8,437.0 -79.7,460.0 -119.5,437.0 -119.5,391.0 -79.7,368.0 -39.8,391.0" fill="none" stroke="#fff" stroke-opacity=".05"/>
<polygon points="39.8,437.0 0.0,460.0 -39.8,437.0 -39.8,391.0 -0.0,368.0 39.8,391.0" fill="none" stroke="#fff" stroke-opacity=".05"/>
<polygon points="119.5,437.0 79.7,460.0 39.8,437.0 39.8,391.0 79.7,368.0 119.5,391.0" fill="none" stroke="#fff" stroke-opacity=".05"/>
<polygon points="199.2,437.0 159.3,460.0 119.5,437.0 119.5,391.0 159.3,368.0 199.2,391.0" fill="none" stroke="#fff" stroke-opacity=".05"/>
<polygon points="278.9,437.0 239.0,460.0 199.2,437.0 199.2,391.0 239.0,368.0 278.9,391.0" fill="none" stroke="#fff" stroke-opacity=".05"/>
<polygon points="358.5,437.0 318.7,460.0 278.9,437.0 278.9,391.0 318.7,368.0 358.5,391.0" fill="none" stroke="#fff" stroke-opacity=".05"/>
<polygon points="438.2,437.0 398.4,460.0 358.5,437.0 358.5,391.0 398.4,368.0 438.2,391.0" fill="none" stroke="#fff" stroke-opacity=".05"/>
<polygon points="517.9,437.0 478.0,460.0 438.2,437.0 438.2,391.0 478.0,368.0 517.9,391.0" fill="none" stroke="#fff" stroke-opacity=".05"/>
<polygon points="597.5,437.0 557.7,460.0 517.9,437.0 517.9,391.0 557.7,368.0 597.5,391.0" fill="none" stroke="#fff" stroke-opacity=".05"/>
<polygon points="677.2,437.0 637.4,460.0 597.5,437.0 597.5,391.0 637.4,368.0 677.2,391.0" fill="none" stroke="#fff" stroke-opacity=".05"/>
<polygon points="756.9,437.0 717.0,460.0 677.2,437.0 677.2,391.0 717.0,368.0 756.9,391.0" fill="none" stroke="#fff" stroke-opacity=".05"/>
<polygon points="0.0,506.0 -39.8,529.0 -79.7,506.0 -79.7,460.0 -39.8,437.0 0.0,460.0" fill="none" stroke="#fff" stroke-opacity=".05"/>
<polygon points="79.7,506.0 39.8,529.0 -0.0,506.0 -0.0,460.0 39.8,437.0 79.7,460.0" fill="none" stroke="#fff" stroke-opacity=".05"/>
<polygon points="159.3,506.0 119.5,529.0 79.7,506.0 79.7,460.0 119.5,437.0 159.3,460.0" fill="none" stroke="#fff" stroke-opacity=".05"/>
<polygon points="239.0,506.0 199.2,529.0 159.3,506.0 159.3,460.0 199.2,437.0 239.0,460.0" fill="none" stroke="#fff" stroke-opacity=".05"/>
<polygon points="318.7,506.0 278.9,529.0 239.0,506.0 239.0,460.0 278.9,437.0 318.7,460.0" fill="none" stroke="#fff" stroke-opacity=".05"/>
<polygon points="398.4,506.0 358.5,529.0 318.7,506.0 318.7,460.0 358.5,437.0 398.4,460.0" fill="none" stroke="#fff" stroke-opacity=".05"/>
<polygon points="478.0,506.0 438.2,529.0 398.4,506.0 398.4,460.0 438.2,437.0 478.0,460.0" fill="none" stroke="#fff" stroke-opacity=".05"/>
<polygon points="557.7,506.0 517.9,529.0 478.0,506.0 478.0,460.0 517.9,437.0 557.7,460.0" fill="none" stroke="#fff" stroke-opacity=".05"/>
<polygon points="637.4,506.0 597.5,529.0 557.7,506.0 557.7,460.0 597.5,437.0 637.4,460.0" fill="none" stroke="#fff" stroke-opacity=".05"/>
<polygon points="717.0,506.0 677.2,529.0 637.4,506.0 637.4,460.0 677.2,437.0 717.0,460.0" fill="none" stroke="#fff" stroke-opacity=".05"/>
<polygon points="796.7,506.0 756.9,529.0 717.0,506.0 717.0,460.0 756.9,437.0 796.7,460.0" fill="none" stroke="#fff" stroke-opacity=".05"/>
<polygon points="-39.8,575.0 -79.7,598.0 -119.5,575.0 -119.5,529.0 -79.7,506.0 -39.8,529.0" fill="none" stroke="#fff" stroke-opacity=".05"/>
<polygon points="39.8,575.0 0.0,598.0 -39.8,575.0 -39.8,529.0 -0.0,506.0 39.8,529.0" fill="none" stroke="#fff" stroke-opacity=".05"/>
<polygon points="119.5,575.0 79.7,598.0 39.8,575.0 39.8,529.0 79.7,506.0 119.5,529.0" fill="none" stroke="#fff" stroke-opacity=".05"/>
<polygon points="199.2,575.0 159.3,598.0 119.5,575.0 119.5,529.0 159.3,506.0 199.2,529.0" fill="none" stroke="#fff" stroke-opacity=".05"/>
<polygon points="278.9,575.0 239.0,598.0 199.2,575.0 199.2,529.0 239.0,506.0 278.9,529.0" fill="none" stroke="#fff" stroke-opacity=".05"/>
<polygon points="358.5,575.0 318.7,598.0 278.9,575.0 278.9,529.0 318.7,506.0 358.5,529.0" fill="none" stroke="#fff" stroke-opacity=".05"/>
<polygon points="438.2,575.0 398.4,598.0 358.5,575.0 358.5,529.0 398.4,506.0 438.2,529.0" fill="none" stroke="#fff" stroke-opacity=".05"/>
<polygon points="517.9,575.0 478.0,598.0 438.2,575.0 438.2,529.0 478.0,506.0 517.9,529.0" fill="none" stroke="#fff" stroke-opacity=".05"/>
<polygon points="597.5,575.0 557.7,598.0 517.9,575.0 517.9,529.0 557.7,506.0 597.5,529.0" fill="none" stroke="#fff" stroke-opacity=".05"/>
<polygon points="677.2,575.0 637.4,598.0 597.5,575.0 597.5,529.0 637.4,506.0 677.2,529.0" fill="none" stroke="#fff" stroke-opacity=".05"/>
<polygon points="756.9,575.0 717.0,598.0 677.2,575.0 677.2,529.0 717.0,506.0 756.9,529.0" fill="none" stroke="#fff" stroke-opacity=".05"/>
<polygon points="0.0,644.0 -39.8,667.0 -79.7,644.0 -79.7,598.0 -39.8,575.0 0.0,598.0" fill="none" stroke="#fff" stroke-opacity=".05"/>
<polygon points="79.7,644.0 39.8,667.0 -0.0,644.0 -0.0,598.0 39.8,575.0 79.7,598.0" fill="none" stroke="#fff" stroke-opacity=".05"/>
<polygon points="159.3,644.0 119.5,667.0 79.7,644.0 79.7,598.0 119.5,575.0 159.3,598.0" fill="none" stroke="#fff" stroke-opacity=".05"/>
<polygon points="239.0,644.0 199.2,667.0 159.3,644.0 159.3,598.0 199.2,575.0 239.0,598.0" fill="none" stroke="#fff" stroke-opacity=".05"/>
<polygon points="318.7,644.0 278.9,667.0 239.0,644.0 239.0,598.0 278.9,575.0 318.7,598.0" fill="none" stroke="#fff" stroke-opacity=".05"/>
<polygon points="398.4,644.0 358.5,667.0 318.7,644.0 318.7,598.0 358.5,575.0 398.4,598.0" fill="none" stroke="#fff" stroke-opacity=".05"/>
<polygon points="478.0,644.0 438.2,667.0 398.4,644.0 398.4,598.0 438.2,575.0 478.0,598.0" fill="none" stroke="#fff" stroke-opacity=".05"/>
<polygon points="557.7,644.0 517.9,667.0 478.0,644.0 478.0,598.0 517.9,575.0 557.7,598.0" fill="none" stroke="#fff" stroke-opacity=".05"/>
<polygon points="637.4,644.0 597.5,667.0 557.7,644.0 557.7,598.0 597.5,575.0 637.4,598.0" fill="none" stroke="#fff" stroke-opacity=".05"/>
<polygon points="717.0,644.0 677.2,667.0 637.4,644.0 637.4,598.0 677.2,575.0 717.0,598.0" fill="none" stroke="#fff" stroke-opacity=".05"/>
<polygon points="796.7,644.0 756.9,667.0 717.0,644.0 717.0,598.0 756.9,575.0 796.7,598.0" fill="none" stroke="#fff" stroke-opacity=".05"/>
<polygon points="-39.8,713.0 -79.7,736.0 -119.5,713.0 -119.5,667.0 -79.7,644.0 -39.8,667.0" fill="none" stroke="#fff" stroke-opacity=".05"/>
<polygon points="39.8,713.0 0.0,736.0 -39.8,713.0 -39.8,667.0 -0.0,644.0 39.8,667.0" fill="none" stroke="#fff" stroke-opacity=".05"/>
<polygon points="119.5,713.0 79.7,736.0 39.8,713.0 39.8,667.0 79.7,644.0 119.5,667.0" fill="none" stroke="#fff" stroke-opacity=".05"/>
<polygon points="199.2,713.0 159.3,736.0 119.5,713.0 119.5,667.0 159.3,644.0 199.2,667.0" fill="none" stroke="#fff" stroke-opacity=".05"/>
<polygon points="278.9,713.0 239.0,736.0 199.2,713.0 199.2,667.0 239.0,644.0 278.9,667.0" fill="none" stroke="#fff" stroke-opacity=".05"/>
<polygon points="358.5,713.0 318.7,736.0 278.9,713.0 278.9,667.0 318.7,644.0 358.5,667.0" fill="none" stroke="#fff" stroke-opacity=".05"/>
<polygon points="438.2,713.0 398.4,736.0 358.5,713.0 358.5,667.0 398.4,644.0 438.2,667.0" fill="none" stroke="#fff" stroke-opacity=".05"/>
<polygon points="517.9,713.0 478.0,736.0 438.2,713.0 438.2,667.0 478.0,644.0 517.9,667.0" fill="none" stroke="#fff" stroke-opacity=".05"/>
<polygon points="597.5,713.0 557.7,736.0 517.9,713.0 517.9,667.0 557.7,644.0 597.5,667.0" fill="none" stroke="#fff" stroke-opacity=".05"/>
<polygon points="677.2,713.0 637.4,736.0 597.5,713.0 597.5,667.0 637.4,644.0 677.2,667.0" fill="none" stroke="#fff" stroke-opacity=".05"/>
<polygon points="756.9,713.0 717.0,736.0 677.2,713.0 677.2,667.0 717.0,644.0 756.9,667.0" fill="none" stroke="#fff" stroke-opacity=".05"/>
<polygon points="0.0,782.0 -39.8,805.0 -79.7,782.0 -79.7,736.0 -39.8,713.0 0.0,736.0" fill="none" stroke="#fff" stroke-opacity=".05"/>
<polygon points="79.7,782.0 39.8,805.0 -0.0,782.0 -0.0,736.0 39.8,713.0 79.7,736.0" fill="none" stroke="#fff" stroke-opacity=".05"/>
<polygon points="159.3,782.0 119.5,805.0 79.7,782.0 79.7,736.0 119.5,713.0 159.3,736.0" fill="none" stroke="#fff" stroke-opacity=".05"/>
<polygon points="239.0,782.0 199.2,805.0 159.3,782.0 159.3,736.0 199.2,713.0 239.0,736.0" fill="none" stroke="#fff" stroke-opacity=".05"/>
<polygon points="318.7,782.0 278.9,805.0 239.0,782.0 239.0,736.0 278.9,713.0 318.7,736.0" fill="none" stroke="#fff" stroke-opacity=".05"/>
<polygon points="398.4,782.0 358.5,805.0 318.7,782.0 318.7,736.0 358.5,713.0 398.4,736.0" fill="none" stroke="#fff" stroke-opacity=".05"/>
<polygon points="478.0,782.0 438.2,805.0 398.4,782.0 398.4,736.0 438.2,713.0 478.0,736.0" fill="none" stroke="#fff" stroke-opacity=".05"/>
<polygon points="557.7,782.0 517.9,805.0 478.0,782.0 478.0,736.0 517.9,713.0 557.7,736.0" fill="none" stroke="#fff" stroke-opacity=".05"/>
<polygon points="637.4,782.0 597.5,805.0 557.7,782.0 557.7,736.0 597.5,713.0 637.4,736.0" fill="none" stroke="#fff" stroke-opacity=".05"/>
<polygon points="717.0,782.0 677.2,805.0 637.4,782.0 637.4,736.0 677.2,713.0 717.0,736.0" fill="none" stroke="#fff" stroke-opacity=".05"/>
<polygon points="796.7,782.0 756.9,805.0 717.0,782.0 717.0,736.0 756.9,713.0 796.7,736.0" fill="none" stroke="#fff" stroke-opacity=".05"/>
<polygon points="-39.8,851.0 -79.7,874.0 -119.5,851.0 -119.5,805.0 -79.7,782.0 -39.8,805.0" fill="none" stroke="#fff" stroke-opacity=".05"/>
<polygon points="39.8,851.0 0.0,874.0 -39.8,851.0 -39.8,805.0 -0.0,782.0 39.8,805.0" fill="none" stroke="#fff" stroke-opacity=".05"/>
<polygon points="119.5,851.0 79.7,874.0 39.8,851.0 39.8,805.0 79.7,782.0 119.5,805.0" fill="none" stroke="#fff" stroke-opacity=".05"/>
<polygon points="199.2,851.0 159.3,874.0 119.5,851.0 119.5,805.0 159.3,782.0 199.2,805.0" fill="none" stroke="#fff" stroke-opacity=".05"/>
<polygon points="278.9,851.0 239.0,874.0 199.2,851.0 199.2,805.0 239.0,782.0 278.9,805.0" fill="none" stroke="#fff" stroke-opacity=".05"/>
<polygon points="358.5,851.0 318.7,874.0 278.9,851.0 278.9,805.0 318.7,782.0 358.5,805.0" fill="none" stroke="#fff" stroke-opacity=".05"/>
<polygon points="438.2,851.0 398.4,874.0 358.5,851.0 358.5,805.0 398.4,782.0 438.2,805.0" fill="none" stroke="#fff" stroke-opacity=".05"/>
<polygon points="517.9,851.0 478.0,874.0 438.2,851.0 438.2,805.0 478.0,782.0 517.9,805.0" fill="none" stroke="#fff" stroke-opacity=".05"/>
<polygon points="597.5,851.0 557.7,874.0 517.9,851.0 517.9,805.0 557.7,782.0 597.5,805.0" fill="none" stroke="#fff" stroke-opacity=".05"/>
<polygon points="677.2,851.0 637.4,874.0 597.5,851.0 597.5,805.0 637.4,782.0 677.2,805.0" fill="none" stroke="#fff" stroke-opacity=".05"/>
<polygon points="756.9,851.0 717.0,874.0 677.2,851.0 677.2,805.0 717.0,782.0 756.9,805.0" fill="none" stroke="#fff" stroke-opacity=".05"/>
<polygon points="0.0,920.0 -39.8,943.0 -79.7,920.0 -79.7,874.0 -39.8,851.0 0.0,874.0" fill="none" stroke="#fff" stroke-opacity=".05"/>
<polygon points="79.7,920.0 39.8,943.0 -0.0,920.0 -0.0,874.0 39.8,851.0 79.7,874.0" fill="none" stroke="#fff" stroke-opacity=".05"/>
<polygon points="159.3,920.0 119.5,943.0 79.7,920.0 79.7,874.0 119.5,851.0 159.3,874.0" fill="none" stroke="#fff" stroke-opacity=".05"/>
<polygon points="239.0,920.0 199.2,943.0 159.3,920.0 159.3,874.0 199.2,851.0 239.0,874.0" fill="none" stroke="#fff" stroke-opacity=".05"/>
<polygon points="318.7,920.0 278.9,943.0 239.0,920.0 239.0,874.0 278.9,851.0 318.7,874.0" fill="none" stroke="#fff" stroke-opacity=".05"/>
<polygon points="398.4,920.0 358.5,943.0 318.7,920.0 318.7,874.0 358.5,851.0 398.4,874.0" fill="none" stroke="#fff" stroke-opacity=".05"/>
<polygon points="478.0,920.0 438.2,943.0 398.4,920.0 398.4,874.0 438.2,851.0 478.0,874.0" fill="none" stroke="#fff" stroke-opacity=".05"/>
<polygon points="557.7,920.0 517.9,943.0 478.0,920.0 478.0,874.0 517.9,851.0 557.7,874.0" fill="none" stroke="#fff" stroke-opacity=".05"/>
<polygon points="637.4,920.0 597.5,943.0 557.7,920.0 557.7,874.0 597.5,851.0 637.4,874.0" fill="none" stroke="#fff" stroke-opacity=".05"/>
<polygon points="717.0,920.0 677.2,943.0 637.4,920.0 637.4,874.0 677.2,851.0 717.0,874.0" fill="none" stroke="#fff" stroke-opacity=".05"/>
<polygon points="796.7,920.0 756.9,943.0 717.0,920.0 717.0,874.0 756.9,851.0 796.7,874.0" fill="none" stroke="#fff" stroke-opacity=".05"/>
<line x1="400" y1="470" x2="250" y2="330" stroke="#fff" stroke-opacity=".28" stroke-width="1.5"/>
<line x1="400" y1="470" x2="570" y2="300" stroke="#fff" stroke-opacity=".28" stroke-width="1.5"/>
<line x1="400" y1="470" x2="610" y2="560" stroke="#fff" stroke-opacity=".28" stroke-width="1.5"/>
<line x1="400" y1="470" x2="330" y2="640" stroke="#fff" stroke-opacity=".28" stroke-width="1.5"/>
<line x1="330" y1="640" x2="470" y2="790" stroke="#fff" stroke-opacity=".28" stroke-width="1.5"/>
<line x1="250" y1="330" x2="200" y2="520" stroke="#fff" stroke-opacity=".28" stroke-width="1.5"/>
<line x1="570" y1="300" x2="520" y2="160" stroke="#fff" stroke-opacity=".28" stroke-width="1.5"/>
<line x1="610" y1="560" x2="650" y2="420" stroke="#fff" stroke-opacity=".28" stroke-width="1.5"/>
<line x1="610" y1="560" x2="700" y2="700" stroke="#fff" stroke-opacity=".28" stroke-width="1.5"/>
<line x1="330" y1="640" x2="150" y2="720" stroke="#fff" stroke-opacity=".28" stroke-width="1.5"/>
<line x1="250" y1="330" x2="570" y2="300" stroke="#fff" stroke-opacity=".28" stroke-width="1.5"/>
<line x1="470" y1="790" x2="700" y2="700" stroke="#fff" stroke-opacity=".28" stroke-width="1.5"/>
<circle cx="400" cy="470" r="54" fill="#9fc7a4" opacity=".07"/>
<circle cx="400" cy="470" r="44" fill="url(#n)"/>
<ellipse cx="386.8" cy="453.3" rx="15.4" ry="8.8" fill="#fff" opacity=".55"/>
<circle cx="250" cy="330" r="36" fill="#fff" opacity=".07"/>
<circle cx="250" cy="330" r="26" fill="url(#nb)"/>
<ellipse cx="242.2" cy="320.1" rx="9.1" ry="5.2" fill="#fff" opacity=".55"/>
<circle cx="570" cy="300" r="40" fill="#fff" opacity=".07"/>
<circle cx="570" cy="300" r="30" fill="url(#nb)"/>
<ellipse cx="561.0" cy="288.6" rx="10.5" ry="6.0" fill="#fff" opacity=".55"/>
<circle cx="610" cy="560" r="34" fill="#fff" opacity=".07"/>
<circle cx="610" cy="560" r="24" fill="url(#nb)"/>
<ellipse cx="602.8" cy="550.9" rx="8.4" ry="4.8" fill="#fff" opacity=".55"/>
<circle cx="330" cy="640" r="42" fill="#fff" opacity=".07"/>
<circle cx="330" cy="640" r="32" fill="url(#nb)"/>
<ellipse cx="320.4" cy="627.8" rx="11.2" ry="6.4" fill="#fff" opacity=".55"/>
<circle cx="470" cy="790" r="32" fill="#9fc7a4" opacity=".07"/>
<circle cx="470" cy="790" r="22" fill="url(#n)"/>
<ellipse cx="463.4" cy="781.6" rx="7.7" ry="4.4" fill="#fff" opacity=".55"/>
<circle cx="200" cy="520" r="28" fill="#fff" opacity=".07"/>
<circle cx="200" cy="520" r="18" fill="url(#nb)"/>
<ellipse cx="194.6" cy="513.2" rx="6.3" ry="3.6" fill="#fff" opacity=".55"/>
<circle cx="650" cy="420" r="26" fill="#9fc7a4" opacity=".07"/>
<circle cx="650" cy="420" r="16" fill="url(#n)"/>
<ellipse cx="645.2" cy="413.9" rx="5.6" ry="3.2" fill="#fff" opacity=".55"/>
<circle cx="520" cy="160" r="28" fill="#fff" opacity=".07"/>
<circle cx="520" cy="160" r="18" fill="url(#nb)"/>
<ellipse cx="514.6" cy="153.2" rx="6.3" ry="3.6" fill="#fff" opacity=".55"/>
<circle cx="150" cy="720" r="24" fill="#fff" opacity=".07"/>
<circle cx="150" cy="720" r="14" fill="url(#nb)"/>
<ellipse cx="145.8" cy="714.7" rx="4.9" ry="2.8" fill="#fff" opacity=".55"/>
<circle cx="700" cy="700" r="28" fill="#fff" opacity=".07"/>
<circle cx="700" cy="700" r="18" fill="url(#nb)"/>
<ellipse cx="694.6" cy="693.2" rx="6.3" ry="3.6" fill="#fff" opacity=".55"/>
</svg>